<svg width="54" height="59" viewBox="0 0 54 59" fill="none" xmlns="http://www.w3.org/2000/svg">
<g id="bi:sun" clip-path="url(#clip0_12_287)">
<g id="Group">
<path id="Vector" d="M27.1986 40.1535C24.5908 40.1535 22.0899 39.0157 20.2459 36.9906C18.402 34.9654 17.3661 32.2186 17.3661 29.3546C17.3661 26.4906 18.402 23.7438 20.2459 21.7186C22.0899 19.6935 24.5908 18.5557 27.1986 18.5557C29.8063 18.5557 32.3073 19.6935 34.1512 21.7186C35.9952 23.7438 37.0311 26.4906 37.0311 29.3546C37.0311 32.2186 35.9952 34.9654 34.1512 36.9906C32.3073 39.0157 29.8063 40.1535 27.1986 40.1535ZM27.1986 43.7531C30.6756 43.7531 34.0102 42.2361 36.4688 39.5359C38.9274 36.8356 40.3086 33.1733 40.3086 29.3546C40.3086 25.5359 38.9274 21.8736 36.4688 19.1733C34.0102 16.4731 30.6756 14.9561 27.1986 14.9561C23.7216 14.9561 20.387 16.4731 17.9284 19.1733C15.4698 21.8736 14.0886 25.5359 14.0886 29.3546C14.0886 33.1733 15.4698 36.8356 17.9284 39.5359C20.387 42.2361 23.7216 43.7531 27.1986 43.7531ZM27.1986 0.557617C27.6332 0.557617 28.05 0.74724 28.3574 1.08477C28.6647 1.4223 28.8373 1.88009 28.8373 2.35743V9.55667C28.8373 10.034 28.6647 10.4918 28.3574 10.8293C28.05 11.1669 27.6332 11.3565 27.1986 11.3565C26.764 11.3565 26.3471 11.1669 26.0398 10.8293C25.7325 10.4918 25.5598 10.034 25.5598 9.55667V2.35743C25.5598 1.88009 25.7325 1.4223 26.0398 1.08477C26.3471 0.74724 26.764 0.557617 27.1986 0.557617V0.557617ZM27.1986 47.3527C27.6332 47.3527 28.05 47.5423 28.3574 47.8799C28.6647 48.2174 28.8373 48.6752 28.8373 49.1525V56.3518C28.8373 56.8291 28.6647 57.2869 28.3574 57.6244C28.05 57.962 27.6332 58.1516 27.1986 58.1516C26.764 58.1516 26.3471 57.962 26.0398 57.6244C25.7325 57.2869 25.5598 56.8291 25.5598 56.3518V49.1525C25.5598 48.6752 25.7325 48.2174 26.0398 47.8799C26.3471 47.5423 26.764 47.3527 27.1986 47.3527ZM53.4187 29.3546C53.4187 29.8319 53.246 30.2897 52.9387 30.6273C52.6314 30.9648 52.2145 31.1544 51.7799 31.1544H45.2249C44.7903 31.1544 44.3734 30.9648 44.0661 30.6273C43.7588 30.2897 43.5861 29.8319 43.5861 29.3546C43.5861 28.8773 43.7588 28.4195 44.0661 28.0819C44.3734 27.7444 44.7903 27.5548 45.2249 27.5548H51.7799C52.2145 27.5548 52.6314 27.7444 52.9387 28.0819C53.246 28.4195 53.4187 28.8773 53.4187 29.3546ZM10.811 29.3546C10.811 29.8319 10.6384 30.2897 10.3311 30.6273C10.0237 30.9648 9.60691 31.1544 9.17229 31.1544H2.61727C2.18265 31.1544 1.76582 30.9648 1.4585 30.6273C1.15117 30.2897 0.978516 29.8319 0.978516 29.3546C0.978516 28.8773 1.15117 28.4195 1.4585 28.0819C1.76582 27.7444 2.18265 27.5548 2.61727 27.5548H9.17229C9.60691 27.5548 10.0237 27.7444 10.3311 28.0819C10.6384 28.4195 10.811 28.8773 10.811 29.3546ZM45.7395 8.99153C46.0467 9.32905 46.2193 9.78675 46.2193 10.264C46.2193 10.7412 46.0467 11.199 45.7395 11.5365L41.1051 16.6299C40.9527 16.797 40.7719 16.9295 40.5729 17.0199C40.3739 17.1102 40.1606 17.1566 39.9453 17.1565C39.5104 17.1561 39.0935 16.9661 38.7862 16.6281C38.6341 16.4608 38.5134 16.2622 38.4312 16.0436C38.3489 15.8251 38.3066 15.5909 38.3068 15.3544C38.3071 14.8768 38.4801 14.4189 38.7879 14.0814L43.4223 8.99153C43.7296 8.65412 44.1463 8.46457 44.5809 8.46457C45.0154 8.46457 45.4321 8.65412 45.7395 8.99153ZM15.6093 42.0829C15.9165 42.4204 16.0891 42.8781 16.0891 43.3553C16.0891 43.8326 15.9165 44.2903 15.6093 44.6278L10.9749 49.7177C10.6658 50.0455 10.2519 50.2269 9.82222 50.2228C9.39254 50.2187 8.98152 50.0294 8.67768 49.6957C8.37384 49.362 8.2015 48.9106 8.19776 48.4387C8.19403 47.9668 8.35921 47.5122 8.65772 47.1727L13.2921 42.0829C13.5994 41.7454 14.0162 41.5559 14.4507 41.5559C14.8853 41.5559 15.302 41.7454 15.6093 42.0829ZM45.7395 49.7177C45.4321 50.0551 45.0154 50.2446 44.5809 50.2446C44.1463 50.2446 43.7296 50.0551 43.4223 49.7177L38.7879 44.6278C38.4893 44.2883 38.3242 43.8337 38.3279 43.3618C38.3316 42.8899 38.504 42.4385 38.8078 42.1048C39.1117 41.7711 39.5227 41.5818 39.9524 41.5777C40.382 41.5736 40.796 41.755 41.1051 42.0829L45.7395 47.1727C46.0467 47.5102 46.2193 47.9679 46.2193 48.4452C46.2193 48.9224 46.0467 49.3801 45.7395 49.7177ZM15.6093 16.6299C15.302 16.9673 14.8853 17.1569 14.4507 17.1569C14.0162 17.1569 13.5994 16.9673 13.2921 16.6299L8.65772 11.5365C8.5012 11.3704 8.37636 11.1718 8.29047 10.9523C8.20459 10.7327 8.15938 10.4965 8.15749 10.2575C8.1556 10.0185 8.19706 9.78155 8.27946 9.56036C8.36186 9.33917 8.48354 9.13821 8.63741 8.96922C8.79127 8.80023 8.97424 8.66659 9.17564 8.5761C9.37704 8.4856 9.59283 8.44006 9.81042 8.44214C10.028 8.44422 10.2431 8.49387 10.443 8.58819C10.6429 8.68252 10.8237 8.81963 10.9749 8.99153L15.6093 14.0814C15.7619 14.2486 15.883 14.4472 15.9656 14.6659C16.0482 14.8845 16.0908 15.1189 16.0908 15.3557C16.0908 15.5924 16.0482 15.8268 15.9656 16.0455C15.883 16.2641 15.7619 16.4627 15.6093 16.6299Z" fill="white"/>
</g>
</g>
<defs>
<clipPath id="clip0_12_287">
<rect width="52.4401" height="57.594" fill="white" transform="translate(0.978516 0.557617)"/>
</clipPath>
</defs>
</svg>
