<svg width="53" height="59" viewBox="0 0 53 59" fill="none" xmlns="http://www.w3.org/2000/svg">
<g id="bx:bx-moon">
<path id="Vector" d="M44.5491 31.493C43.0685 31.925 41.5429 32.1436 40.0109 32.1434C35.3459 32.1434 30.965 30.1516 27.6743 26.5376C25.5135 24.1506 23.96 21.1834 23.1687 17.9316C22.3774 14.6797 22.3759 11.2569 23.1645 8.00431C23.263 7.59763 23.2623 7.16966 23.1627 6.76333C23.063 6.357 22.8678 5.9866 22.5967 5.68928C22.3255 5.39196 21.9879 5.17818 21.6178 5.06938C21.2477 4.96058 20.858 4.9606 20.4879 5.06942C16.7803 6.15454 13.3976 8.29138 10.6794 11.2656C2.16222 20.6198 2.16222 35.8462 10.6794 45.2052C12.7038 47.441 15.1119 49.2137 17.7643 50.4206C20.4167 51.6275 23.2607 52.2447 26.1317 52.2365C29.002 52.2453 31.8453 51.6286 34.497 50.4221C37.1487 49.2156 39.5561 47.4432 41.5797 45.2076C44.2898 42.2216 46.2363 38.5046 47.2236 34.4303C47.3217 34.0238 47.3209 33.5962 47.2212 33.1901C47.1216 32.7841 46.9267 32.4138 46.6559 32.1165C46.3852 31.8191 46.0481 31.605 45.6784 31.4956C45.3087 31.3862 44.9193 31.3853 44.5491 31.493ZM38.4923 41.8144C36.8732 43.6024 34.9472 45.02 32.8259 45.9851C30.7046 46.9503 28.43 47.4437 26.1339 47.437C23.837 47.4432 21.5618 46.9493 19.4398 45.9838C17.3178 45.0183 15.3911 43.6004 13.7712 41.812C6.9583 34.3271 6.9583 22.146 13.7712 14.6612C15.0876 13.217 16.6075 12.0153 18.2723 11.1024C18.0286 14.5558 18.4666 18.0262 19.5564 21.2766C20.6463 24.5269 22.3622 27.4806 24.5869 29.9356C26.8174 32.3867 29.5059 34.2764 32.4667 35.4743C35.4274 36.6721 38.5897 37.1495 41.7349 36.8733C40.8991 38.6986 39.8046 40.3664 38.4923 41.8144Z" fill="white"/>
</g>
</svg>
